<svg width="16" height="16" viewBox="0 0 16 16" fill="none" xmlns="http://www.w3.org/2000/svg">
<path d="M12.8333 7.99984C12.8333 10.6692 10.6694 12.8332 7.99996 12.8332C5.33059 12.8332 3.16663 10.6692 3.16663 7.99984C3.16663 5.33046 5.33059 3.1665 7.99996 3.1665C10.6694 3.1665 12.8333 5.33046 12.8333 7.99984Z" stroke="#6B7280" stroke-linecap="round" stroke-linejoin="round"/>
<path d="M6.5 9.1665C6.5 9.1665 6.66667 10.1665 8 10.1665C9.33333 10.1665 9.5 9.1665 9.5 9.1665" stroke="#6B7280" stroke-linecap="round" stroke-linejoin="round"/>
<path d="M7.00004 6.66683C7.00004 6.8509 6.85077 7.00016 6.66671 7.00016C6.48261 7.00016 6.33337 6.8509 6.33337 6.66683C6.33337 6.48274 6.48261 6.3335 6.66671 6.3335C6.85077 6.3335 7.00004 6.48274 7.00004 6.66683Z" fill="#6B7280" stroke="#6B7280" stroke-linecap="round" stroke-linejoin="round"/>
<path d="M9.66667 6.66683C9.66667 6.8509 9.5174 7.00016 9.33333 7.00016C9.14927 7.00016 9 6.8509 9 6.66683C9 6.48274 9.14927 6.3335 9.33333 6.3335C9.5174 6.3335 9.66667 6.48274 9.66667 6.66683Z" fill="#6B7280" stroke="#6B7280" stroke-linecap="round" stroke-linejoin="round"/>
</svg>
