<svg width="16" height="16" viewBox="0 0 16 16" fill="none" xmlns="http://www.w3.org/2000/svg">
<path d="M4.83337 6.16683V3.8335L3.83337 4.16683M4.83337 6.16683H3.83337M4.83337 6.16683H5.50004M7.83337 5.16683H12.1667M7.83337 10.8335H12.1667M5.50004 12.1668H3.83337L5.31804 10.8082C5.40156 10.7319 5.46005 10.6321 5.48585 10.522C5.51164 10.4119 5.50352 10.2965 5.46256 10.1911C5.4216 10.0857 5.34972 9.99512 5.25634 9.9313C5.16297 9.86747 5.05248 9.83338 4.93937 9.8335H4.16671C4.0783 9.8335 3.99352 9.86861 3.93101 9.93113C3.86849 9.99364 3.83337 10.0784 3.83337 10.1668" stroke="#6B7280" stroke-linecap="round" stroke-linejoin="round"/>
</svg>
