<?xml version="1.0" encoding="utf-8"?>
<!-- Generator: Adobe Illustrator 22.1.0, SVG Export Plug-In . SVG Version: 6.00 Build 0)  -->
<svg version="1.1" id="Layer_1" xmlns="http://www.w3.org/2000/svg" xmlns:xlink="http://www.w3.org/1999/xlink" x="0px" y="0px"
	 viewBox="0 0 20 20" style="enable-background:new 0 0 20 20;" xml:space="preserve">
<path d="M0.3,20h19.4V0H0.3V20z M1.4,18.9v-3.6h17.1v3.6H1.4z M10.3,14.1H3.5l3.4-4.4L10.3,14.1z M10.1,12.1l1.9-1.8l4.3,3.9h-4.6
	L10.1,12.1z M18.6,5.5c-0.4,0.1-0.7,0.2-1.1,0.2c-1.9,0-3.4-1.5-3.4-3.4c0-0.4,0.1-0.8,0.2-1.1h4.4V5.5z M1.4,1.1H13
	c-0.1,0.4-0.1,0.8-0.1,1.1c0,2.5,2.1,4.6,4.6,4.6c0.4,0,0.8,0,1.1-0.1v7.4H18l-6-5.5l-2.6,2.5L6.9,7.9L2,14.2H1.4V1.1z"/>
</svg>
