<svg width="16" height="16" viewBox="0 0 16 16" fill="none" xmlns="http://www.w3.org/2000/svg">
<path d="M4.33341 3.99984C4.33341 4.18393 4.18417 4.33317 4.00008 4.33317C3.81599 4.33317 3.66675 4.18393 3.66675 3.99984C3.66675 3.81574 3.81599 3.6665 4.00008 3.6665C4.18417 3.6665 4.33341 3.81574 4.33341 3.99984Z" stroke="#6B7280" stroke-width="0.666667" stroke-linecap="round" stroke-linejoin="round"/>
<path d="M4.33341 7.99984C4.33341 8.1839 4.18417 8.33317 4.00008 8.33317C3.81599 8.33317 3.66675 8.1839 3.66675 7.99984C3.66675 7.81577 3.81599 7.6665 4.00008 7.6665C4.18417 7.6665 4.33341 7.81577 4.33341 7.99984Z" stroke="#6B7280" stroke-width="0.666667" stroke-linecap="round" stroke-linejoin="round"/>
<path d="M4.33341 11.9998C4.33341 12.1839 4.18417 12.3332 4.00008 12.3332C3.81599 12.3332 3.66675 12.1839 3.66675 11.9998C3.66675 11.8158 3.81599 11.6665 4.00008 11.6665C4.18417 11.6665 4.33341 11.8158 4.33341 11.9998Z" stroke="#6B7280" stroke-width="0.666667" stroke-linecap="round" stroke-linejoin="round"/>
<path d="M6.5 4H12.1667" stroke="#6B7280" stroke-linecap="round" stroke-linejoin="round"/>
<path d="M6.5 8H12.1667" stroke="#6B7280" stroke-linecap="round" stroke-linejoin="round"/>
<path d="M6.5 12H12.1667" stroke="#6B7280" stroke-linecap="round" stroke-linejoin="round"/>
</svg>
